<svg xmlns="http://www.w3.org/2000/svg" viewBox="0 0 40 40"><defs><style>.cls-1,.cls-3{fill:#fff}.cls-2{fill:#c8102e}.cls-2,.cls-3{fill-rule:evenodd}</style></defs><g id="Layer_2" data-name="Layer 2"><g id="Layer_1-2" data-name="Layer 1"><ellipse class="cls-1" cx="20.05" cy="20.15" rx="19.72" ry="19.51"/><g id="Our-Business"><g id="Products"><g id="Group-5"><path id="Fill-1" class="cls-2" d="M40 20A20 20 0 1 1 20 0a20 20 0 0 1 20 20"/><path id="Fill-3" class="cls-3" d="M31.55 30.31a4.31 4.31 0 0 1-3.37-1.66 4.79 4.79 0 0 1-.73-4.2 22.26 22.26 0 0 1 2.12-4.26 15.11 15.11 0 0 0 2.33-7.32v-.81a6.59 6.59 0 0 0-.1-.76 5.89 5.89 0 0 0-.4-1.34 5.5 5.5 0 0 0-1.05-1.62 5.58 5.58 0 0 0-1-.84 7.1 7.1 0 0 0-1.17-.67c-.21-.1-.43-.2-.65-.28a11.29 11.29 0 0 0-1.43-.44c-.52-.12-1-.22-1.57-.3a25.54 25.54 0 0 0-2.61-.23 32.6 32.6 0 0 0-3.83.07l-.86.08c-.55.06-1.09.15-1.63.26a14.77 14.77 0 0 0-1.49.38l-.69.25c-.22.09-.43.18-.64.29l-.6.32a7.24 7.24 0 0 0-1 .78 5.47 5.47 0 0 0-1.45 2.13 4.64 4.64 0 0 0-.22.66c-.06.23-.11.47-.15.71a6.7 6.7 0 0 0-.08.77v.58a15.11 15.11 0 0 0 2.33 7.32 22.64 22.64 0 0 1 2.12 4.27 4.79 4.79 0 0 1-.73 4.2 4.26 4.26 0 0 1-6.26.52 6.55 6.55 0 0 0 12.58-2.47 10.33 10.33 0 0 0-.92-3.7l-.94-2.55a32.6 32.6 0 0 1-1.76-6.15c-.26-1.68-.23-3.73 1-5a5.3 5.3 0 0 1 3.81-1.22 5.31 5.31 0 0 1 3.82 1.22c1.27 1.29 1.3 3.34 1 5a32.6 32.6 0 0 1-1.76 6.19c-.32.85-.63 1.7-.94 2.55a10.33 10.33 0 0 0-.92 3.66 6.55 6.55 0 0 0 12.65 2.47 4.23 4.23 0 0 1-2.89 1.13"/></g></g></g></g></g></svg>